<?xml version="1.0" encoding="UTF-8"?> <svg xmlns="http://www.w3.org/2000/svg" width="206" height="48" viewBox="0 0 206 48" fill="none"><path d="M41.8393 5.5681C41.5557 5.46456 34.7553 3.02975 23.9054 3.02975C12.8726 3.02975 6.06187 5.46376 5.77744 5.56731L3.98999 6.21882V20.6596C3.98999 34.6775 21.866 44.4517 22.6259 44.8611L23.9134 45.5532L25.1969 44.8547C25.9496 44.4446 43.6276 34.6679 43.6276 20.6596V6.21882L41.8393 5.5681ZM7.20834 8.49751C8.66302 8.03158 14.7796 6.26422 23.9062 6.26422C26.1279 6.26422 28.3424 6.37333 30.4951 6.58679V16.5156C28.6569 14.8621 26.276 13.947 23.8088 13.9486C18.2983 13.9486 13.8154 18.4159 13.8154 23.91C13.8154 29.4016 18.2991 33.8698 23.8088 33.8698C29.3193 33.8698 33.8022 29.4016 33.8022 23.91V7.00732C37.2685 7.54653 39.5852 8.23149 40.4084 8.49672V20.6596C40.4076 31.9543 25.9528 40.6924 23.9039 41.8736C22.9428 41.3288 19.2617 39.1536 15.6266 35.8706C8.66857 29.5856 7.20834 24.1298 7.20834 20.6596V8.49751ZM23.808 30.8074C19.9883 30.8074 16.88 27.7123 16.88 23.91C16.88 20.1061 19.9875 17.0118 23.808 17.0118C27.6277 17.0118 30.7351 20.1061 30.7351 23.91C30.7351 27.7131 27.6277 30.8074 23.808 30.8074Z" fill="white"></path><path d="M86.9614 25.7315C82.4793 25.7315 78.6668 21.9579 78.6668 17.4514C78.6668 12.8287 82.3336 8.93879 86.9614 8.93879C91.5014 8.93879 95.3147 12.7714 95.3147 17.336C95.3155 21.9284 91.5315 25.7315 86.9614 25.7315ZM86.9907 10.781C83.3818 10.781 80.703 13.8825 80.703 17.422C80.703 20.9041 83.4681 23.8885 86.9907 23.8885C90.6575 23.8885 93.2777 20.8452 93.2777 17.246C93.2777 13.7646 90.484 10.781 86.9907 10.781ZM99.8515 15.9891V25.3516H97.8137V9.34737H99.8515V11.6587H99.9093C100.783 9.61021 102.325 9.08374 104.392 8.93719V11.1028C101.597 11.3362 99.8515 13.121 99.8515 15.9891ZM121.592 18.095H107.099C107.244 21.2554 110.154 23.8885 113.268 23.8885C115.713 23.8885 118.101 22.4835 118.973 20.114H121.127C119.963 23.4497 116.819 25.7323 113.297 25.7323C108.698 25.7323 105.002 21.9587 105.002 17.3638C105.002 12.8001 108.698 8.93799 113.268 8.93799C117.926 8.93799 121.621 12.8877 121.621 17.5104C121.621 17.7151 121.592 17.8903 121.592 18.095ZM113.297 10.781C110.125 10.781 107.593 13.121 107.099 16.252H119.526C119.001 13.121 116.499 10.781 113.297 10.781ZM136.083 25.3516V16.5443C136.083 15.023 135.703 13.2381 134.57 12.1557C133.629 11.274 132.392 10.7818 131.106 10.7794C129.82 10.7818 128.583 11.2732 127.642 12.1557C126.536 13.2079 126.157 14.9338 126.157 16.3977V25.3516H124.121V9.34737H126.157V11.3951H126.216C127.263 9.75596 129.214 8.93799 131.106 8.93799C135.677 8.93799 138.121 12.1271 138.121 16.5451V25.3516H136.083ZM172.486 25.3516V22.8643H172.428C171.497 24.8244 169.43 25.7323 167.335 25.7323C165.268 25.7323 163.172 25.0012 161.863 23.3326C160.727 21.8989 160.465 19.9675 160.465 18.1826V9.34737H162.502V18.1547C162.502 21.4609 163.695 23.8893 167.335 23.8893C168.672 23.8893 169.721 23.5381 170.711 22.6014C172.109 21.2562 172.371 19.6752 172.371 17.8035V9.34737H174.408V25.3516H172.486ZM179.701 15.9891V25.3516H177.663V9.34737H179.701V11.6587H179.758C180.631 9.61021 182.174 9.08374 184.24 8.93719V11.1028C181.447 11.3362 179.701 13.121 179.701 15.9891ZM74.0428 3.70041V11.8722C72.4392 10.0076 70.1067 8.93719 67.6545 8.94117C63.0012 8.94117 59.2283 12.6997 59.2283 17.3368C59.2283 21.9714 63.0012 25.7315 67.6545 25.7315C72.3085 25.7315 76.0807 21.9714 76.0807 17.3368V3.70041H74.0428ZM67.6545 23.9156C64.0083 23.9156 61.0522 20.9694 61.0522 17.3368C61.0522 13.7033 64.0083 10.7563 67.6545 10.7563C71.3015 10.7563 74.2576 13.7025 74.2576 17.3368C74.2576 20.9694 71.3007 23.9156 67.6545 23.9156ZM149.484 8.94117C146.926 8.94117 144.641 10.0801 143.096 11.8722V3.70041H141.059V17.3376C141.059 21.9722 144.832 25.7323 149.486 25.7323C154.139 25.7323 157.912 21.9722 157.912 17.3376C157.911 12.6997 154.137 8.94117 149.484 8.94117ZM149.484 23.9156C145.837 23.9156 142.882 20.9694 142.882 17.3368C142.882 13.7033 145.837 10.7563 149.484 10.7563C153.131 10.7563 156.087 13.7025 156.087 17.3368C156.087 20.9694 153.13 23.9156 149.484 23.9156ZM193.558 8.93719C188.904 8.93719 185.131 12.6965 185.131 17.3328C185.131 21.969 188.904 25.7292 193.558 25.7292C196.115 25.7292 198.4 24.5894 199.945 22.7973V23.8304C199.945 27.4001 197.763 29.7991 194.184 29.7991C191.419 29.7991 189.236 28.3368 188.218 25.7634H186.064C187.17 29.5657 190.372 31.6437 194.214 31.6437C196.6 31.6437 199.074 30.6195 200.529 28.688C201.839 26.9326 201.986 24.943 201.986 22.8364V17.3344C201.985 12.6965 198.21 8.93719 193.558 8.93719ZM193.558 23.9116C189.91 23.9116 186.955 20.9655 186.955 17.3328C186.955 13.6993 189.909 10.7539 193.558 10.7539C197.205 10.7539 200.16 13.7001 200.16 17.3328C200.16 20.9655 197.202 23.9116 193.558 23.9116ZM66.5143 40.1572C66.0881 41.4849 64.8243 42.2838 63.4473 42.2838C61.2605 42.2838 60.1386 40.5427 60.1386 38.5173C60.1386 36.5189 61.3176 34.7069 63.475 34.7069C65.7189 34.7069 66.6839 36.5906 66.6276 38.6033H61.3881C61.3881 39.1751 61.4166 39.7032 61.686 40.2456C62.0267 40.9314 62.7794 41.3455 63.5321 41.3455C64.4694 41.3455 65.1508 40.8031 65.4637 39.9461L66.5143 40.1572ZM65.4067 37.7742C65.421 36.5755 64.753 35.5632 63.475 35.5632C62.2684 35.5632 61.4871 36.6336 61.4452 37.7742H65.4067ZM70.8871 42.142H69.7224L67.1529 34.8909H68.3881L70.4038 40.7848L72.3774 34.8909H73.3718L70.8871 42.142ZM80.2854 40.1572C79.86 41.4849 78.5962 42.2838 77.2184 42.2838C75.0316 42.2838 73.9105 40.5427 73.9105 38.5173C73.9105 36.5189 75.0887 34.7069 77.2469 34.7069C79.49 34.7069 80.455 36.5906 80.3987 38.6033H75.16C75.16 39.1751 75.1885 39.7032 75.4579 40.2456C75.7986 40.9314 76.5513 41.3455 77.304 41.3455C78.2405 41.3455 78.9219 40.8031 79.2348 39.9461L80.2854 40.1572ZM79.1778 37.7742C79.1928 36.5755 78.5249 35.5632 77.2469 35.5632C76.0403 35.5632 75.259 36.6336 75.2163 37.7742H79.1778ZM83.0823 36.233H83.1108C83.5228 35.3338 84.3318 34.7062 85.3538 34.7062C86.2198 34.7062 86.944 35.0773 87.3988 35.8332C87.768 36.4472 87.7395 37.4181 87.7395 38.1318V42.142H86.6326V37.6603C86.6326 37.2326 86.6469 36.6894 86.4338 36.3182C86.1921 35.9032 85.6676 35.6619 85.1985 35.6619C84.6162 35.6619 84.0917 35.9335 83.7074 36.3899C83.2392 36.961 83.1401 37.6172 83.1401 38.3452V42.142H82.0325V34.8909H83.0831L83.0823 36.233ZM93.1478 42.1985L92.0829 42.283C90.507 42.283 90.038 41.3559 90.038 39.9135V35.7161H88.76V34.8328H90.038V33.0336L91.1456 32.9189V34.8312H92.75V35.7145H91.1456V40.0975C91.1456 40.9401 91.3873 41.3806 92.296 41.3806L93.1478 41.3097V42.1985ZM106.679 42.0838C106.323 42.146 105.963 42.1794 105.6 42.1842C104.805 42.1842 104.521 41.813 103.996 41.3137C103.187 41.9843 102.449 42.2838 101.384 42.2838C100.645 42.2838 99.7936 42.056 99.2113 41.6131C98.5299 41.0994 98.1036 40.2424 98.1036 39.4013C98.1036 37.9311 99.2256 36.9618 100.617 36.4194C100.219 35.8626 99.6938 34.9913 99.6938 34.2784C99.6938 33.036 100.617 32.2084 101.866 32.2084C103.13 32.2084 104.139 32.9507 104.139 34.2784C104.139 35.591 103.159 36.2776 102.079 36.7618L104.139 39.888C104.863 39.0031 105.275 37.9183 105.459 36.7905L106.509 37.0048C106.225 38.3325 105.614 39.6164 104.707 40.6311C105.02 40.9736 105.288 41.1456 105.772 41.1456C106.013 41.1456 106.325 41.1305 106.68 41.0739V42.0838H106.679ZM101.084 37.1609C100.091 37.6037 99.3238 38.1174 99.3238 39.3153C99.3238 40.6574 100.247 41.3559 101.538 41.3559C102.277 41.3559 102.915 41.1002 103.441 40.5849L101.084 37.1609ZM101.581 36.0617L102.121 35.7901C102.689 35.4755 103.213 35.0765 103.213 34.3342C103.213 33.607 102.617 33.1076 101.892 33.1076C101.24 33.1076 100.729 33.5784 100.729 34.2346C100.729 34.7627 101.226 35.505 101.581 36.0617ZM117.766 39.7438C117.511 41.2141 116.53 42.283 114.983 42.283C112.839 42.283 111.917 40.4137 111.917 38.5165C111.917 36.6328 112.855 34.7062 114.998 34.7062C116.56 34.7062 117.525 35.7185 117.766 37.2174L116.745 37.4022C116.644 36.4456 116.063 35.6468 115.027 35.6468C113.522 35.6468 113.096 37.231 113.096 38.4456C113.096 39.6156 113.449 41.3288 114.956 41.3288C116.034 41.3288 116.56 40.5435 116.746 39.5574L117.766 39.7438ZM123.828 37.6459V37.3305C123.828 36.0602 123.275 35.5751 121.996 35.5751C121.088 35.5751 120.222 35.8602 120.022 36.859L118.986 36.6878C119.185 35.1753 120.776 34.7046 122.096 34.7046C122.876 34.7046 123.77 34.789 124.31 35.4182C124.907 36.0617 124.907 36.9737 124.907 37.802V40.6136C124.907 41.1416 124.922 41.6689 125.062 42.1404H123.956L123.828 40.7848C123.316 41.8282 122.451 42.283 121.301 42.283C119.953 42.283 118.788 41.5279 118.788 40.0855C118.788 39.2142 119.328 38.4296 120.123 38.0728C120.932 37.6889 121.997 37.6459 122.892 37.6459H123.828ZM123.828 38.4878H122.905C121.769 38.4878 119.981 38.6447 119.981 40.1436C119.981 41.0429 120.749 41.414 121.544 41.414C122.907 41.414 123.83 40.2432 123.83 38.9593L123.828 38.4878ZM130.346 42.1985L129.279 42.283C127.704 42.283 127.235 41.3559 127.235 39.9135V35.7161H125.959V34.8328H127.235V33.0336L128.343 32.9189V34.8312H129.946V35.7145H128.343V40.0975C128.343 40.9401 128.584 41.3806 129.493 41.3806L130.343 41.3097V42.1961H130.346V42.1985ZM137.359 40.1572C136.932 41.4849 135.669 42.2838 134.292 42.2838C132.105 42.2838 130.983 40.5427 130.983 38.5173C130.983 36.5189 132.16 34.7069 134.319 34.7069C136.563 34.7069 137.529 36.5906 137.472 38.6033H132.234C132.234 39.1751 132.262 39.7032 132.533 40.2456C132.873 40.9314 133.625 41.3455 134.377 41.3455C135.315 41.3455 135.996 40.8031 136.309 39.9461L137.359 40.1572ZM136.251 37.7742C136.265 36.5755 135.598 35.5632 134.319 35.5632C133.113 35.5632 132.332 36.6336 132.289 37.7742H136.251ZM140.141 34.8909V36.5898H140.169C140.51 35.6046 141.12 34.691 142.285 34.691L142.698 34.7189V35.7901H142.471C141.619 35.7901 141.022 36.2051 140.609 36.9323C140.311 37.4603 140.254 37.9175 140.254 38.4878V42.142H139.148V34.8909H140.141ZM144.981 33.607H143.76V32.351H144.981V33.607ZM144.925 42.142H143.818V34.8909H144.925V42.142ZM148.106 36.233H148.134C148.546 35.3338 149.355 34.7062 150.377 34.7062C151.243 34.7062 151.967 35.0773 152.421 35.8332C152.791 36.4472 152.763 37.4181 152.763 38.1318V42.142H151.656V37.6603C151.656 37.2326 151.671 36.6894 151.458 36.3182C151.215 35.9032 150.691 35.6619 150.222 35.6619C149.64 35.6619 149.115 35.9335 148.731 36.3899C148.261 36.961 148.162 37.6172 148.162 38.3452V42.142H147.056V34.8909H148.106V36.233ZM157.135 34.7062C157.631 34.7062 158.142 34.8057 158.597 35.02C158.782 33.9933 159.279 33.7647 160.259 33.7647L160.542 33.7799L160.557 34.6791H160.443C159.79 34.6791 159.279 34.7508 159.166 35.5066C159.606 35.9917 159.861 36.6344 159.861 37.2907C159.861 38.0043 159.478 38.675 158.939 39.1019C158.414 39.5025 157.76 39.6586 157.107 39.6586C156.781 39.6586 156.397 39.5439 156.128 39.5439C155.787 39.5439 155.361 39.8434 155.361 40.2153C155.361 40.5578 155.588 40.7577 155.901 40.8294C156.398 40.9441 157.094 40.9138 157.604 40.9441C158.229 40.972 159.152 40.9871 159.72 41.2006C160.385 41.4491 160.826 42.0862 160.826 42.7991C160.826 44.6405 158.654 44.8826 157.262 44.8826C156.595 44.8826 155.772 44.8548 155.147 44.5975C154.452 44.314 153.911 43.7986 153.911 42.999C153.911 42.2431 154.323 41.7716 155.006 41.5287C154.593 41.2563 154.309 40.9298 154.309 40.3858C154.309 39.6721 154.721 39.3583 155.303 39.0867C154.692 38.6017 154.365 37.9589 154.365 37.1744C154.366 35.6046 155.686 34.7062 157.135 34.7062ZM157.277 44.0113C157.817 44.0113 158.653 43.9269 159.138 43.6975C159.536 43.5119 159.762 43.2825 159.762 42.8405C159.762 42.1412 158.981 42.013 158.228 41.9699C157.802 41.9421 156.567 41.9548 155.786 41.8545C155.36 42.0544 155.006 42.3268 155.006 42.8389C155.006 43.8393 156.538 44.0113 157.277 44.0113ZM157.135 38.7881C158.1 38.7881 158.738 38.1453 158.738 37.1752C158.738 36.2625 158.014 35.5918 157.135 35.5918C156.197 35.5918 155.516 36.2632 155.516 37.1911C155.516 38.174 156.155 38.7881 157.135 38.7881Z" fill="white"></path></svg> 